<svg width="48" height="48" viewBox="0 0 48 48" fill="none" xmlns="http://www.w3.org/2000/svg">
<g clip-path="url(#clip0_8_126)">
<mask id="mask0_8_126" style="mask-type:luminance" maskUnits="userSpaceOnUse" x="0" y="0" width="48" height="48">
<path d="M0 0H47.5V47.5H0V0Z" fill="white"/>
</mask>
<g mask="url(#mask0_8_126)">
<path d="M13.75 16.25C17.5 22.5 13.75 29.615 10 28.365C6.25001 27.115 5.00001 30.865 8.75001 32.115C12.5 33.365 20.5813 31.535 25 27.115C26.25 25.865 27.5 25.865 27.5 25.865L13.75 16.25Z" fill="#553788"/>
<path d="M33.75 16.25C30 22.5 33.75 29.615 37.5 28.365C41.25 27.115 42.5 30.865 38.75 32.115C35 33.365 26.9188 31.535 22.5 27.115C21.25 25.865 20 25.865 20 25.865L33.75 16.25Z" fill="#553788"/>
<path d="M38.9862 21.25C35.2362 27.5 38.9862 34.615 42.7362 33.365C46.4862 32.115 47.7362 35.865 43.9862 37.115C40.2362 38.365 32.155 36.535 27.7362 32.115C26.4862 30.865 25.2362 30.865 25.2362 30.865L38.9862 21.25ZM8.51375 21.25C12.2637 27.5 8.51375 34.615 4.76375 33.365C1.01375 32.115 -0.236253 35.865 3.51375 37.115C7.26375 38.365 15.345 36.535 19.7637 32.115C21.0137 30.865 22.2637 30.865 22.2637 30.865L8.51375 21.25Z" fill="#744EAA"/>
<path d="M42.735 40.4688C39.3237 41.6063 34.7037 33.4363 36.72 27.2463C38.7775 23.1925 40 18.675 40 15C40 6.02502 32.7237 1.25002 23.75 1.25002C14.775 1.25002 7.5 6.02502 7.5 15C7.5 18.675 8.72125 23.1925 10.7787 27.2463C12.795 33.4363 8.17625 41.6063 4.76375 40.4688C1.01375 39.2188 -0.236253 44.2188 3.51375 45.4688C7.26375 46.7188 13.9012 44.685 18.5137 40.4688C21.25 37.9688 23.75 37.9688 23.75 37.9688C23.75 37.9688 26.25 37.9688 28.985 40.4688C33.5975 44.685 40.235 46.7188 43.985 45.4688C47.735 44.2188 46.485 39.2188 42.735 40.4688Z" fill="#9266CC"/>
<path d="M21.25 27.5C21.2499 27.8284 21.1851 28.1535 21.0594 28.4569C20.9336 28.7603 20.7494 29.0359 20.5171 29.268C20.2848 29.5002 20.0091 29.6843 19.7057 29.8099C19.4023 29.9355 19.0771 30.0001 18.7487 30C18.4203 29.9999 18.0952 29.9352 17.7918 29.8094C17.4885 29.6837 17.2128 29.4994 16.9807 29.2671C16.7485 29.0349 16.5644 28.7592 16.4388 28.4557C16.3132 28.1523 16.2486 27.8271 16.2487 27.4988C16.2489 26.8355 16.5125 26.1996 16.9816 25.7307C17.4507 25.2619 18.0868 24.9986 18.75 24.9988C19.4132 24.9989 20.0492 25.2625 20.518 25.7316C20.9868 26.2007 21.2501 26.8368 21.25 27.5ZM31.25 27.5C31.2499 27.8284 31.1851 28.1535 31.0594 28.4569C30.9336 28.7603 30.7494 29.0359 30.5171 29.268C30.2848 29.5002 30.0091 29.6843 29.7057 29.8099C29.4023 29.9355 29.0771 30.0001 28.7487 30C28.4203 29.9999 28.0952 29.9352 27.7918 29.8094C27.4885 29.6837 27.2128 29.4994 26.9807 29.2671C26.7485 29.0349 26.5644 28.7592 26.4388 28.4557C26.3132 28.1523 26.2486 27.8271 26.2487 27.4988C26.2489 26.8355 26.5125 26.1996 26.9816 25.7307C27.4507 25.2619 28.0868 24.9986 28.75 24.9988C29.4132 24.9989 30.0492 25.2625 30.518 25.7316C30.9868 26.2007 31.2501 26.8368 31.25 27.5Z" fill="#292F33"/>
</g>
</g>
<defs>
<clipPath id="clip0_8_126">
<rect width="47.5" height="47.5" fill="white"/>
</clipPath>
</defs>
</svg>
