<svg width="231" height="174" viewBox="0 0 231 174" fill="none" xmlns="http://www.w3.org/2000/svg">
<path fill-rule="evenodd" clip-rule="evenodd" d="M223.749 121.93C229.052 119.253 231.663 112.892 229.627 106.981C227.411 100.543 220.521 97.0775 214.239 99.2405C207.958 101.403 204.662 108.376 206.879 114.814C208.709 120.127 213.72 123.415 218.946 123.187C219.008 123.324 219.061 123.448 219.103 123.557C219.478 124.539 219.828 129.252 220.04 132.693C220.161 134.672 221.985 136.112 223.934 135.747L224.04 135.727C226.028 135.355 227.207 133.285 226.54 131.376C225.342 127.95 223.749 123.172 223.749 121.996C223.749 121.974 223.749 121.952 223.749 121.93Z" fill="#FFD68B"/>
<ellipse cx="218.421" cy="111.026" rx="9.53168" ry="9.76892" transform="rotate(-19 218.421 111.026)" fill="#FEABAE"/>
<mask id="mask0_13_24" style="mask-type:luminance" maskUnits="userSpaceOnUse" x="208" y="101" width="20" height="20">
<ellipse cx="218.421" cy="111.026" rx="9.53168" ry="9.76892" transform="rotate(-19 218.421 111.026)" fill="white"/>
</mask>
<g mask="url(#mask0_13_24)">
<path fill-rule="evenodd" clip-rule="evenodd" d="M220.798 104.29C220.798 104.29 223.388 106.207 223.719 108.333C224.049 110.46 224.347 113.547 224.347 113.547C224.347 113.547 225.227 110.542 224.838 108.038C224.449 105.533 220.798 104.29 220.798 104.29Z" fill="#F3E9D6"/>
</g>
<path fill-rule="evenodd" clip-rule="evenodd" d="M141.929 1.51407C147.82 3.8942 151.623 8.23123 150.423 11.2011C149.223 14.171 143.475 14.6491 137.584 12.2689C131.693 9.88881 127.89 5.55178 129.09 2.58191C130.29 -0.387966 136.038 -0.866051 141.929 1.51407ZM123.601 21.6444C74.9682 21.6444 64.8029 51.6405 64.8029 66.7725C64.8029 72.1323 65.7913 79.0345 66.8067 86.1255C68.658 99.0537 70.599 112.609 66.8037 118.588C61.5523 126.861 55.947 131.973 54.8133 132.968C54.674 133.09 54.5506 133.213 54.4269 133.351C53.1691 134.753 45.508 142.835 37.6507 140.946C30.9346 139.569 27.1224 137.939 25.7099 133.146C25.0922 131.05 24.5204 125.482 25.7099 123.639C25.8307 123.452 25.9397 123.279 26.0397 123.12C26.7781 121.95 27.0279 121.554 27.9348 121.839C28.5026 122.018 27.6947 124.332 26.9541 125.764C26.705 126.246 26.3765 126.566 26.0859 126.85C25.513 127.408 25.0877 127.823 25.7099 129.049C26.611 130.824 27.7311 130.01 28.3259 129.164L28.3437 129.138L28.3439 129.138C28.3858 129.079 28.4274 129.019 28.4711 128.961C28.9355 128.341 31.4007 124.975 31.6048 123.079C31.8303 120.985 30.7027 118.953 30.3611 118.588C28.6421 116.75 20.3381 118.478 17.2957 123.639C12.6467 131.524 16.8932 155.144 46.232 157.761C59.6982 159.1 72.2441 151.318 78.5567 146.53C80.2546 145.243 82.5507 146.403 81.9651 148.452C80.3782 154.003 75.858 162.323 63.0013 166.269C60.6826 166.981 56.979 168.966 55.3815 169.852C54.8953 170.121 54.6727 170.664 55.1477 170.953C56.629 171.853 62.1619 172.836 82.82 167.985C98.0537 164.279 102.111 144.423 102.111 144.423V157.761C102.111 164.827 106.941 172.558 109.341 173.814C110.745 174.549 114.107 165.964 115.173 157.761C116.24 149.557 121.774 144.423 123.601 144.423C127.339 144.423 125.84 157.62 125.824 157.76L125.824 157.761C125.809 157.903 123.622 178.52 129.504 170.287C131.957 166.855 135.774 160.731 138.054 153.606C139.349 149.56 139.601 146.072 139.766 143.787C139.891 142.048 139.967 141.006 140.413 140.946C145.847 140.217 151.839 152.897 156.5 162.763C159.734 169.605 162.327 175.093 163.65 173.814C168.946 168.695 163.462 147.543 161.263 139.927C163.573 146.044 171.758 160.246 197.965 160.246C218.729 160.246 228.491 135.712 228.958 134.239C229.424 132.766 229.143 131.366 228.958 130.712C227.823 126.702 222.824 127.143 222.911 129.167C222.955 130.185 223.756 130.908 224.404 131.494C225.046 132.073 225.539 132.519 225.01 132.985C224.214 133.685 220.497 131.493 220.067 131.232C219.637 130.972 219.619 130.972 219.533 130.972H219.532C219.446 130.972 219.173 130.972 218.894 131.507C218.681 131.916 218.56 132.514 218.472 132.948C218.444 133.084 218.42 133.204 218.397 133.297C218.352 133.482 218.365 133.666 218.379 133.878C218.413 134.369 218.457 135.004 217.814 136.112C215.137 140.722 209.206 146.569 199.278 144.423C185.881 141.528 182.801 140.067 180.015 130.712C178.35 125.12 180.542 119.629 183.466 112.304C185.434 107.374 187.734 101.614 189.413 94.4328C193.586 76.5809 192.047 67.3651 189.413 59.6846C186.778 52.0041 172.234 21.6444 123.601 21.6444Z" fill="url(#paint0_linear_13_24)"/>
<ellipse cx="91.383" cy="71.3572" rx="15.1684" ry="21.986" fill="white"/>
<ellipse cx="136.215" cy="71.3572" rx="15.1684" ry="21.986" fill="white"/>
<ellipse cx="90.785" cy="76.938" rx="8.96642" ry="12.9965" fill="#8F2579"/>
<ellipse cx="133.375" cy="75.8172" rx="8.96642" ry="12.9965" fill="#8F2579"/>
<path fill-rule="evenodd" clip-rule="evenodd" d="M13.718 101.205C13.5031 100.807 13.6537 100.309 14.0537 100.097L14.5861 99.8134C14.9846 99.6016 15.4793 99.7528 15.6911 100.151L28.0497 123.394L27.8665 123.967C27.8566 123.998 27.8452 124.027 27.8316 124.057C27.7276 124.284 27.252 125.324 27.2404 125.355C27.2318 125.378 27.1634 125.503 27.1188 125.584C27.093 125.631 27.0626 125.675 27.0281 125.715L26.9633 125.792L13.718 101.205Z" fill="#C43B1F"/>
<path d="M15.1284 102.22C15.2041 102.109 15.3296 102.042 15.4641 102.042L17.5108 102.032C19.881 102.021 21.2096 99.2971 19.7591 97.4226L18.5065 95.8038C18.4242 95.6974 18.3996 95.5574 18.4405 95.4294L19.0639 93.4798C19.7858 91.2222 17.6056 89.1169 15.3746 89.9171L13.448 90.6082C13.3214 90.6536 13.1807 90.6338 13.0715 90.5552L11.41 89.3599C9.48601 87.9757 6.80999 89.3986 6.88164 91.7677L6.94352 93.8136C6.94758 93.948 6.88525 94.0757 6.77685 94.1553L5.12658 95.3661C3.21561 96.7682 3.74189 99.7529 6.01717 100.417L7.98203 100.99C8.1111 101.028 8.21338 101.127 8.25553 101.254L8.89711 103.198C9.64006 105.449 12.6413 105.871 13.9759 103.912L15.1284 102.22Z" fill="#FF1DA7" stroke="#FF1D60" stroke-width="0.81704"/>
<ellipse cx="91.9059" cy="74.9005" rx="3.36241" ry="3.11334" fill="white"/>
<ellipse opacity="0.44" cx="90.5609" cy="81.1272" rx="2.01744" ry="1.868" fill="white"/>
<ellipse opacity="0.2" cx="94.3716" cy="79.7573" rx="1.34496" ry="1.24534" fill="white"/>
<ellipse cx="132.255" cy="73.7797" rx="3.36241" ry="3.11334" fill="white"/>
<ellipse opacity="0.4" cx="130.91" cy="80.0064" rx="2.01744" ry="1.868" fill="white"/>
<ellipse opacity="0.33" cx="134.721" cy="78.6365" rx="1.34496" ry="1.24534" fill="white"/>
<defs>
<linearGradient id="paint0_linear_13_24" x1="15.6913" y1="15.1496" x2="15.6913" y2="174" gradientUnits="userSpaceOnUse">
<stop stop-color="#FF00CA"/>
<stop offset="0.333333" stop-color="#C616A1"/>
<stop offset="0.666667" stop-color="#B7389C"/>
<stop offset="1" stop-color="#7C1266"/>
</linearGradient>
</defs>
</svg>
